<?xml version="1.0" encoding="utf-8"?>
<!-- Generator: Adobe Illustrator 22.0.1, SVG Export Plug-In . SVG Version: 6.00 Build 0)  -->
<svg version="1.1" id="home_x5F_fill" xmlns="http://www.w3.org/2000/svg" xmlns:xlink="http://www.w3.org/1999/xlink" x="0px"
	 y="0px" viewBox="0 0 24 24" style="enable-background:new 0 0 24 24;" xml:space="preserve">
<g>
	<path d="M19.5,24h-4c-0.3,0-0.5-0.2-0.5-0.5v-7c0-0.3-0.2-0.5-0.5-0.5h-5C9.2,16,9,16.2,9,16.5v7C9,23.8,8.8,24,8.5,24h-4
		C3.7,24,3,23.3,3,22.5V13H1c-0.5,0-1-0.4-1-1c0-0.3,0.1-0.5,0.3-0.7L11.7,0.1c0.2-0.2,0.5-0.2,0.7,0l11.3,11.1
		c0.2,0.2,0.3,0.4,0.3,0.7c0,0.6-0.5,1-1,1h-2v9.5C21,23.3,20.3,24,19.5,24z"/>
</g>
</svg>
