<?xml version="1.0" encoding="utf-8"?>
<!-- Generator: Adobe Illustrator 22.0.1, SVG Export Plug-In . SVG Version: 6.00 Build 0)  -->
<svg version="1.1" id="Capa_1" xmlns="http://www.w3.org/2000/svg" xmlns:xlink="http://www.w3.org/1999/xlink" x="0px" y="0px"
	 viewBox="0 0 24 24" style="enable-background:new 0 0 24 24;" xml:space="preserve">
<g>
	<g>
		<path d="M23.4,7.6c-0.8-0.8-2.2-0.8-3,0c-0.3,0.3-1.9,1.9-2.1,2.1V4.1c0-0.6-0.2-1.1-0.6-1.5l-2-2C15.3,0.2,14.7,0,14.2,0H2.1
			C0.9,0,0,0.9,0,2.1v19.8C0,23.1,0.9,24,2.1,24h14.1c1.2,0,2.1-0.9,2.1-2.1v-6.3l5.1-5.1C24.2,9.7,24.2,8.4,23.4,7.6z M14.1,1.4
			c0.1,0,0.4,0,0.6,0.2l2,2c0.2,0.2,0.2,0.5,0.2,0.6h-2.8V1.4z M16.9,21.9c0,0.4-0.3,0.7-0.7,0.7H2.1c-0.4,0-0.7-0.3-0.7-0.7V2.1
			c0-0.4,0.3-0.7,0.7-0.7h10.5v3.5c0,0.4,0.3,0.7,0.7,0.7h3.5v5.5c0,0-2.1,2.1-2.1,2.1l-1,1c-0.1,0.1-0.1,0.2-0.2,0.3l-1,3
			c-0.1,0.3,0,0.5,0.2,0.7c0.2,0.2,0.5,0.3,0.7,0.2l3-1c0.1,0,0.2-0.1,0.3-0.2l0.1-0.1L16.9,21.9L16.9,21.9z M15.3,14.6l1,1L15.9,16
			l-1.5,0.5l0.5-1.5L15.3,14.6z M17.3,14.6l-1-1c0.5-0.5,2.9-2.9,3.4-3.4l1,1L17.3,14.6z M22.4,9.5l-0.7,0.7l-1-1l0.7-0.7
			c0.3-0.3,0.7-0.3,1,0C22.7,8.8,22.7,9.3,22.4,9.5z"/>
	</g>
</g>
<g>
	<g>
		<path d="M13.4,7H3.5C3.1,7,2.8,7.3,2.8,7.7s0.3,0.7,0.7,0.7h9.8c0.4,0,0.7-0.3,0.7-0.7S13.7,7,13.4,7z"/>
	</g>
</g>
<g>
	<g>
		<path d="M10.5,9.8h-7c-0.4,0-0.7,0.3-0.7,0.7s0.3,0.7,0.7,0.7h7c0.4,0,0.7-0.3,0.7-0.7S10.9,9.8,10.5,9.8z"/>
	</g>
</g>
<g>
	<g>
		<path d="M10.5,12.7h-7c-0.4,0-0.7,0.3-0.7,0.7s0.3,0.7,0.7,0.7h7c0.4,0,0.7-0.3,0.7-0.7S10.9,12.7,10.5,12.7z"/>
	</g>
</g>
<g>
	<g>
		<path d="M10.5,15.5h-7c-0.4,0-0.7,0.3-0.7,0.7c0,0.4,0.3,0.7,0.7,0.7h7c0.4,0,0.7-0.3,0.7-0.7C11.3,15.8,10.9,15.5,10.5,15.5z"/>
	</g>
</g>
<g>
	<g>
		<path d="M13.4,19.8H9.1c-0.4,0-0.7,0.3-0.7,0.7s0.3,0.7,0.7,0.7h4.2c0.4,0,0.7-0.3,0.7-0.7S13.7,19.8,13.4,19.8z"/>
	</g>
</g>
</svg>
