<?xml version="1.0" encoding="utf-8"?>
<!-- Generator: Adobe Illustrator 22.0.1, SVG Export Plug-In . SVG Version: 6.00 Build 0)  -->
<svg version="1.1" id="圖層_1" xmlns="http://www.w3.org/2000/svg" xmlns:xlink="http://www.w3.org/1999/xlink" x="0px" y="0px"
	 viewBox="0 0 24 19" style="enable-background:new 0 0 24 19;" xml:space="preserve">
<g>
	<path d="M21.5,0.2h-19C1.1,0.2,0,1.3,0,2.7v14c0,1.4,1.1,2.5,2.5,2.5h19c1.4,0,2.5-1.1,2.5-2.5v-14C24,1.3,22.9,0.2,21.5,0.2z
		 M16.1,10c0,0-6.3,3.5-7.5,4.3c-0.1,0.1-0.3,0.2-0.5,0c-0.2-0.1-0.3-0.3-0.3-0.4V5.4C7.9,5.2,8,5,8.1,4.9c0.2-0.1,0.4-0.1,0.5,0
		l7.5,4.3c0.1,0.1,0.2,0.2,0.2,0.4C16.3,9.8,16.3,9.9,16.1,10z"/>
	<polygon points="8.8,13 15,9.6 8.8,6.3 	"/>
</g>
</svg>
