<?xml version="1.0" encoding="utf-8"?>
<!-- Generator: Adobe Illustrator 22.0.1, SVG Export Plug-In . SVG Version: 6.00 Build 0)  -->
<svg version="1.1" id="facebook" focusable="false" xmlns="http://www.w3.org/2000/svg" xmlns:xlink="http://www.w3.org/1999/xlink"
	 x="0px" y="0px" viewBox="0 0 21 24" style="enable-background:new 0 0 21 24;" xml:space="preserve" fill="#848484">
<path d="M19.9,0H1.1c-1.4,0-2.6,1.2-2.6,2.6v18.9c0,1.4,1.2,2.6,2.6,2.6h7.4v-8.2H5V12h3.4V9.1c0-3.3,2-5.2,5-5.2c1.5,0,3,0.3,3,0.3
	v3.3h-1.7c-1.7,0-2.2,1-2.2,2.1V12h3.7l-0.6,3.8h-3.1V24h7.4c1.4,0,2.6-1.2,2.6-2.6V2.6C22.5,1.2,21.3,0,19.9,0z"/>
</svg>
