<svg version="1.1" id="vide" xmlns="http://www.w3.org/2000/svg" x="0px" y="0px"
	 viewBox="0 0 24 19"   enable-background="new 0 0 24 19">
<g>
	<g>
		<path d="M21.5,19.2h-19C1.1,19.2,0,18,0,16.7v-14c0-1.4,1.1-2.5,2.5-2.5h19c1.4,0,2.5,1.1,2.5,2.5v14C24,18,22.9,19.2,21.5,19.2z
			 M2.5,1.2C1.7,1.2,1,1.8,1,2.7v14c0,0.8,0.7,1.5,1.5,1.5h19c0.8,0,1.5-0.7,1.5-1.5v-14c0-0.8-0.7-1.5-1.5-1.5H2.5z"/>
	</g>
	<g>
		<path d="M8.1,14.4c-0.2-0.1-0.3-0.3-0.3-0.4V5.4C7.9,5.2,8,5,8.1,4.9c0.2-0.1,0.4-0.1,0.5,0l7.5,4.3c0.1,0.1,0.2,0.2,0.2,0.4
			c0,0.2-0.1,0.3-0.2,0.4c0,0-6.3,3.5-7.5,4.3C8.6,14.4,8.4,14.5,8.1,14.4z M8.8,6.3V13L15,9.6L8.8,6.3z"/>
	</g>
</g>
</svg>
