<?xml version="1.0" encoding="utf-8"?>
<!-- Generator: Adobe Illustrator 22.0.1, SVG Export Plug-In . SVG Version: 6.00 Build 0)  -->
<svg version="1.1" id="Capa_1" xmlns="http://www.w3.org/2000/svg" xmlns:xlink="http://www.w3.org/1999/xlink" x="0px" y="0px"
	 viewBox="0 0 24 24" style="enable-background:new 0 0 24 24;" xml:space="preserve">
<g>
	<g>
		<path d="M22.2,17.7l-3-3c-0.8-0.8-2.2-0.8-3,0l-1.4,1.4c-0.6,0.6-1.6,0.6-2.3,0c0,0,0,0,0,0l-4.7-4.7c-0.6-0.6-0.6-1.6,0-2.3
			l1.4-1.4c0.8-0.8,0.8-2.2,0-3l-3-3C5.5,1,4.1,1,3.3,1.8c0,0-1,1-1,1c-2.9,2.7-3.2,7.7-0.1,10.9l8.2,8.1c2.8,2.8,7.6,3.1,10.8-0.1
			c0,0,0,0,0,0l1-1C23,19.9,23,18.5,22.2,17.7z M4.3,2.8c0.3-0.3,0.7-0.3,1,0l3,3c0.3,0.3,0.3,0.7,0,1L7.8,7.3l-4-4L4.3,2.8z
			 M11.4,20.8l-8.2-8.1c-2.3-2.3-2.4-5.9-0.4-8.3l4,4c-1,1.2-1,3,0.1,4.1l4.7,4.7c1.1,1.1,2.9,1.2,4.1,0.1l4,4
			C17.3,23.2,13.7,23.1,11.4,20.8z M21.2,19.7l-0.5,0.5l-4-4l0.5-0.5c0.3-0.3,0.7-0.3,1,0l3,3C21.5,19,21.5,19.4,21.2,19.7z"/>
	</g>
</g>
<g>
	<g>
		<path d="M21.9,0h-8.4c-1.2,0-2.1,0.9-2.1,2.1v5.6c0,1.2,0.9,2.1,2.1,2.1h0.7V12c0,0.6,0.8,0.9,1.2,0.5L18,9.8h3.9
			c1.2,0,2.1-0.9,2.1-2.1V2.1C24,0.9,23.1,0,21.9,0z M22.6,7.7c0,0.4-0.3,0.7-0.7,0.7h-4.2c-0.2,0-0.4,0.1-0.5,0.2l-1.6,1.6V9.1
			c0-0.4-0.3-0.7-0.7-0.7h-1.4c-0.4,0-0.7-0.3-0.7-0.7V2.1c0-0.4,0.3-0.7,0.7-0.7h8.4c0.4,0,0.7,0.3,0.7,0.7L22.6,7.7L22.6,7.7z"/>
	</g>
</g>
<g>
	<g>
		<path d="M20.5,2.8h-5.6c-0.4,0-0.7,0.3-0.7,0.7s0.3,0.7,0.7,0.7h5.6c0.4,0,0.7-0.3,0.7-0.7S20.9,2.8,20.5,2.8z"/>
	</g>
</g>
<g>
	<g>
		<path d="M17.7,5.6h-2.8c-0.4,0-0.7,0.3-0.7,0.7c0,0.4,0.3,0.7,0.7,0.7h2.8c0.4,0,0.7-0.3,0.7-0.7S18.1,5.6,17.7,5.6z"/>
	</g>
</g>
</svg>
