<?xml version="1.0" encoding="utf-8"?>
<!-- Generator: Adobe Illustrator 22.0.1, SVG Export Plug-In . SVG Version: 6.00 Build 0)  -->
<svg version="1.1" id="圖層_1" xmlns="http://www.w3.org/2000/svg" xmlns:xlink="http://www.w3.org/1999/xlink" x="0px" y="0px"
	 viewBox="0 0 24 18" style="enable-background:new 0 0 24 18;" xml:space="preserve">
<path d="M22,0H2C0.9,0,0,0.9,0,2v14c0,1.1,0.9,2,2,2h20c1.1,0,2-0.9,2-2V2C24,0.9,23.1,0,22,0z M22.2,17c-1.4-1.3-5.4-5.1-8-7.3
	c-0.3,0.3-0.6,0.6-0.9,0.8C13,10.8,12.5,11,12,11s-1-0.2-1.4-0.6c-0.2-0.2-0.5-0.5-0.9-0.8c-2.5,2.2-6.6,6-8,7.3c0,0-0.5,0-0.7-0.7
	C2.4,15,6.4,11.2,9,9c-2.6-2.4-6.6-6-7.9-7.2c0,0,0.1-0.5,0.7-0.7c1.7,1.6,7.5,6.8,9.5,8.6C11.4,9.8,11.7,10,12,10
	c0.3,0,0.6-0.2,0.7-0.3c2-1.8,7.8-7.1,9.5-8.6c0,0,0.4,0.1,0.7,0.7C21.6,2.9,17.6,6.6,15,9c2.6,2.2,6.6,6,7.9,7.3
	C22.9,16.3,22.7,16.9,22.2,17z"/>
</svg>
