<?xml version="1.0" encoding="utf-8"?>
<!-- Generator: Adobe Illustrator 22.0.1, SVG Export Plug-In . SVG Version: 6.00 Build 0)  -->
<svg version="1.1" id="圖層_1" xmlns="http://www.w3.org/2000/svg" xmlns:xlink="http://www.w3.org/1999/xlink" x="0px" y="0px"
	 viewBox="0 0 20.6 24" style="enable-background:new 0 0 20.6 24;" xml:space="preserve">
<style type="text/css">
	.st0{fill:#040000;}
</style>
<g>
	<path class="st0" d="M18.3,0H2.7C1.3,0,0.2,1.1,0.2,2.5v19c0,1.4,1.1,2.5,2.5,2.5h15.6c1.4,0,2.5-1.1,2.5-2.5v-19
		C20.8,1.1,19.7,0,18.3,0z M11.4,17H5.6c-0.3,0-0.5-0.2-0.5-0.5c0-0.3,0.2-0.5,0.5-0.5h5.8c0.3,0,0.5,0.2,0.5,0.5
		C11.9,16.7,11.6,17,11.4,17z M15.5,12.5H5.5c-0.3,0-0.5-0.2-0.5-0.4c0-0.3,0.2-0.5,0.5-0.5h9.9c0.3,0,0.5,0.2,0.5,0.4
		C16,12.2,15.8,12.5,15.5,12.5z M15.5,8H5.5C5.3,8,5.1,7.8,5,7.5C5,7.2,5.2,7,5.5,7h9.9c0.3,0,0.5,0.2,0.5,0.4C16,7.7,15.8,8,15.5,8
		z"/>
</g>
</svg>
