<?xml version="1.0" encoding="utf-8"?>
<!-- Generator: Adobe Illustrator 22.0.1, SVG Export Plug-In . SVG Version: 6.00 Build 0)  -->
<svg version="1.1" id="圖層_1" xmlns="http://www.w3.org/2000/svg" xmlns:xlink="http://www.w3.org/1999/xlink" x="0px" y="0px"
	 viewBox="0 0 24 18" style="enable-background:new 0 0 24 18;" xml:space="preserve">
<g>
	<g>
		<path d="M22,0H2C0.9,0,0,0.9,0,2v14c0,1.1,0.9,2,2,2h20c1.1,0,2-0.9,2-2V2C24,0.9,23.1,0,22,0z M2,1h20c0.1,0,0.1,0,0.2,0
			c-1.7,1.6-7.5,6.8-9.5,8.6C12.6,9.8,12.3,10,12,10c-0.3,0-0.6-0.2-0.7-0.3C9.3,7.9,3.5,2.6,1.8,1C1.9,1,1.9,1,2,1z M1,16V2
			c0-0.1,0-0.2,0.1-0.3C2.4,2.9,6.4,6.6,9,9c-2.6,2.2-6.6,6-7.9,7.3C1,16.2,1,16.1,1,16z M22,17H2c-0.1,0-0.2,0-0.2,0
			c1.4-1.3,5.4-5.1,8-7.3c0.3,0.3,0.6,0.6,0.9,0.8C11,10.8,11.5,11,12,11c0.5,0,1-0.2,1.4-0.6c0.2-0.2,0.5-0.5,0.9-0.8
			c2.5,2.2,6.6,6,8,7.3C22.2,17,22.1,17,22,17z M23,16c0,0.1,0,0.2-0.1,0.3C21.6,15,17.6,11.2,15,9c2.6-2.4,6.6-6,7.9-7.2
			C23,1.8,23,1.9,23,2L23,16L23,16z"/>
	</g>
</g>
</svg>
