<?xml version="1.0" encoding="utf-8"?>
<!-- Generator: Adobe Illustrator 22.0.1, SVG Export Plug-In . SVG Version: 6.00 Build 0)  -->
<svg version="1.1" id="圖層_1" xmlns="http://www.w3.org/2000/svg" xmlns:xlink="http://www.w3.org/1999/xlink" x="0px" y="0px"
	 viewBox="0 0 24 24" style="enable-background:new 0 0 24 24;" xml:space="preserve">
<path d="M24,11.5c-0.1-3.1-1.4-6.1-3.6-8.2C18.1,1.1,15.1-0.1,12,0C8.8-0.1,5.9,1.1,3.6,3.3C1.3,5.4,0,8.4,0,11.5l0,0v0
	c0,3.2,1.4,6.2,3.8,8.4v2.9c0,0.6,0.4,1.1,0.9,1.2c0.1,0,0.2,0,0.2,0c0.2,0,0.4-0.1,0.6-0.2l2.3-1.5c1.3,0.5,2.7,0.7,4.1,0.7h0
	c0.1,0,0.2,0,0.2,0c3.1,0,5.9-1.2,8.1-3.3C22.6,17.6,23.9,14.7,24,11.5L24,11.5L24,11.5z M19.4,18.8c-1.9,1.9-4.5,2.9-7.2,2.9
	c-0.1,0-0.1,0-0.2,0l0,0h0c-1.3,0-2.6-0.2-3.8-0.7c-0.3-0.1-0.6-0.1-0.9,0.1l-2.1,1.3v-2.7c0-0.3-0.1-0.6-0.4-0.8
	c-2.2-1.9-3.4-4.6-3.4-7.4c0.1-2.8,1.2-5.3,3.2-7.2c2-1.9,4.6-2.9,7.4-2.9l0,0l0,0c2.8-0.1,5.4,1,7.4,2.9c2,1.9,3.1,4.5,3.2,7.2
	C22.5,14.3,21.4,16.9,19.4,18.8z"/>
<path d="M18.5,7.7L14,10.1l-2.7-2.3c-0.5-0.4-1.2-0.4-1.6,0.1l-5.6,5.6c-0.2,0.2-0.3,0.5-0.3,0.8c0,0.3,0.1,0.6,0.3,0.8
	c0.2,0.2,0.5,0.3,0.8,0.3c0.2,0,0.4,0,0.6-0.1l4.5-2.4l2.7,2.3c0.5,0.4,1.2,0.4,1.6-0.1l5.6-5.6C20.3,9.1,20.3,8.5,20,8
	C19.6,7.5,19,7.4,18.5,7.7z M13.4,14l-2.7-2.3c-0.2-0.2-0.4-0.2-0.7-0.2c-0.2,0-0.3,0-0.5,0.1l-3.3,1.8L10.6,9l2.7,2.3
	c0.3,0.3,0.8,0.3,1.2,0.1l3.3-1.8L13.4,14z"/>
</svg>
