<?xml version="1.0" encoding="utf-8"?>
<!-- Generator: Adobe Illustrator 22.0.1, SVG Export Plug-In . SVG Version: 6.00 Build 0)  -->
<svg version="1.1" id="Capa_1" xmlns="http://www.w3.org/2000/svg" xmlns:xlink="http://www.w3.org/1999/xlink" x="0px" y="0px"
	 viewBox="0 0 24 24" style="enable-background:new 0 0 24 24;" xml:space="preserve">
<g>
	<g>
		<path d="M12,4c-1.9,0-3.5,1.6-3.5,3.5S10.1,11,12,11s3.5-1.6,3.5-3.5S13.9,4,12,4z M12,10c-1.4,0-2.5-1.1-2.5-2.5S10.6,5,12,5
			c1.4,0,2.5,1.1,2.5,2.5S13.4,10,12,10z"/>
	</g>
</g>
<g>
	<g>
		<path d="M23.4,23.2l-4-6C19.3,17.1,19.2,17,19,17h-4.9c-0.3,0-0.5,0.2-0.5,0.5s0.2,0.5,0.5,0.5h4.6l3.3,5H1.9l3.3-5h4.6
			c0.3,0,0.5-0.2,0.5-0.5S10.1,17,9.8,17H5c-0.2,0-0.3,0.1-0.4,0.2l-4,6c-0.1,0.2-0.1,0.4,0,0.5C0.6,23.9,0.8,24,1,24h22
			c0.2,0,0.4-0.1,0.4-0.3C23.5,23.6,23.5,23.4,23.4,23.2z"/>
	</g>
</g>
<g>
	<g>
		<path d="M12,0C7.9,0,4.5,3.4,4.5,7.5c0,4,6.8,12.9,7.1,13.3c0.1,0.1,0.2,0.2,0.4,0.2c0.2,0,0.3-0.1,0.4-0.2
			c0.3-0.4,7.1-9.3,7.1-13.3C19.5,3.4,16.1,0,12,0z M12,19.7c-1.5-2-6.5-9-6.5-12.2C5.5,3.9,8.4,1,12,1s6.5,2.9,6.5,6.5
			C18.5,10.6,13.5,17.7,12,19.7z"/>
	</g>
</g>
</svg>
