<?xml version="1.0" encoding="utf-8"?>
<!-- Generator: Adobe Illustrator 22.0.1, SVG Export Plug-In . SVG Version: 6.00 Build 0)  -->
<svg version="1.1" id="Capa_1" xmlns="http://www.w3.org/2000/svg" xmlns:xlink="http://www.w3.org/1999/xlink" x="0px" y="0px"
	 viewBox="0 0 24 24" style="enable-background:new 0 0 24 24;" xml:space="preserve">
<g>
	<g>
		<path d="M20,14.3C19.9,14.3,19.9,14.3,20,14.3l-2.7-0.8l-1.9-1.8v-0.5c0.9-0.9,1.5-2.1,1.5-3.5V4.9C16.9,2.2,14.7,0,12,0
			C9.3,0,7,2.2,7,4.9v2.9c0,1.4,0.6,2.6,1.5,3.5v0.5l-1.9,1.8l-2.6,0.8c0,0,0,0,0,0c-1.1,0.4-1.8,1.6-1.5,2.7l1.2,6.4
			C3.8,23.8,4.1,24,4.5,24c0,0,0,0,0.1,0c0,0,0,0,0.1,0h14.9c0.3,0,0.6-0.2,0.7-0.6l1.3-6.4C21.7,15.9,21.1,14.7,20,14.3z M16,14.3
			l-2,3l-1.1-1.1l2-3L16,14.3z M12,1.4c1.1,0,2.2,0.6,2.8,1.4c-0.7,0.9-1.7,1.4-2.8,1.4H8.5C8.9,2.6,10.3,1.4,12,1.4z M8.4,7.8V5.6
			H12c1.3,0,2.5-0.5,3.4-1.4c0,0.2,0.1,0.5,0.1,0.7v2.9c0,1.9-1.6,3.5-3.5,3.5C10,11.3,8.4,9.8,8.4,7.8z M9.1,13.2l2,3L10,17.3l-2-3
			L9.1,13.2z M11.3,22.6H5c0,0-1.1-5.8-1.1-5.9c-0.1-0.5,0.1-0.9,0.6-1.1L6.8,15l2.5,3.8c0.2,0.4,0.8,0.4,1.1,0.1l0.9-0.9L11.3,22.6
			L11.3,22.6z M10.3,12.5c0.5,0.2,1.1,0.3,1.7,0.3c0.6,0,1.2-0.1,1.7-0.3L12,15L10.3,12.5z M20.1,16.8l-1.2,5.8h-6.2V18l0.9,0.9
			c0.3,0.3,0.8,0.3,1.1-0.1l2.5-3.8l2.3,0.7C19.9,15.8,20.2,16.2,20.1,16.8z"/>
	</g>
</g>
<g>
	<g>
		<path d="M17.6,19.8h-1.4c-0.4,0-0.7,0.3-0.7,0.7c0,0.4,0.3,0.7,0.7,0.7h1.4c0.4,0,0.7-0.3,0.7-0.7C18.3,20.1,18,19.8,17.6,19.8z"
			/>
	</g>
</g>
</svg>
