<?xml version="1.0" encoding="utf-8"?>
<!-- Generator: Adobe Illustrator 22.0.1, SVG Export Plug-In . SVG Version: 6.00 Build 0)  -->
<svg version="1.1" id="圖層_1" xmlns="http://www.w3.org/2000/svg" xmlns:xlink="http://www.w3.org/1999/xlink" x="0px" y="0px"
	 viewBox="0 0 24 24" style="enable-background:new 0 0 24 24;" xml:space="preserve">
<style type="text/css">
	.st0{fill:#040000;}
</style>
<g>
	<g>
		<path class="st0" d="M19.4,24H3.8c-1.4,0-2.5-1.1-2.5-2.5v-19C1.3,1.1,2.4,0,3.8,0h15.6c1.4,0,2.5,1.1,2.5,2.5v19
			C21.9,22.9,20.7,24,19.4,24z M3.8,1C3,1,2.3,1.7,2.3,2.5v19C2.3,22.3,3,23,3.8,23h15.6c0.8,0,1.5-0.7,1.5-1.5v-19
			c0-0.8-0.7-1.5-1.5-1.5H3.8z"/>
	</g>
	<g>
		<path class="st0" d="M16.5,8H6.6C6.3,8,6.1,7.8,6.1,7.5C6.1,7.2,6.3,7,6.6,7h9.9C16.8,7,17,7.2,17,7.5C17,7.8,16.8,8,16.5,8z"/>
	</g>
	<g>
		<path class="st0" d="M16.5,12.5H6.6c-0.3,0-0.5-0.2-0.5-0.5c0-0.3,0.2-0.5,0.5-0.5h9.9c0.3,0,0.5,0.2,0.5,0.5
			C17,12.3,16.8,12.5,16.5,12.5z"/>
	</g>
	<g>
		<path class="st0" d="M12.5,17H6.6c-0.3,0-0.5-0.2-0.5-0.5S6.3,16,6.6,16h5.9c0.3,0,0.5,0.2,0.5,0.5S12.8,17,12.5,17z"/>
	</g>
</g>
</svg>
