<?xml version="1.0" encoding="utf-8"?>
<!-- Generator: Adobe Illustrator 22.0.1, SVG Export Plug-In . SVG Version: 6.00 Build 0)  -->
<svg version="1.1" id="_x31_px" xmlns="http://www.w3.org/2000/svg" xmlns:xlink="http://www.w3.org/1999/xlink" x="0px" y="0px"
	 viewBox="0 0 24 24" style="enable-background:new 0 0 24 24;" xml:space="preserve">
<path d="M3,20c-0.8,0-1.5-0.7-1.5-1.5S2.2,17,3,17s1.5,0.7,1.5,1.5S3.8,20,3,20z M3,18c-0.3,0-0.5,0.2-0.5,0.5S2.7,19,3,19
	s0.5-0.2,0.5-0.5S3.3,18,3,18z"/>
<path d="M5.5,24C5.2,24,5,23.8,5,23.5V23c0-0.6-0.4-1-1-1H2c-0.6,0-1,0.4-1,1v0.5C1,23.8,0.8,24,0.5,24S0,23.8,0,23.5V23
	c0-1.1,0.9-2,2-2h2c1.1,0,2,0.9,2,2v0.5C6,23.8,5.8,24,5.5,24z"/>
<path d="M12,20c-0.8,0-1.5-0.7-1.5-1.5S11.2,17,12,17s1.5,0.7,1.5,1.5S12.8,20,12,20z M12,18c-0.3,0-0.5,0.2-0.5,0.5S11.7,19,12,19
	s0.5-0.2,0.5-0.5S12.3,18,12,18z"/>
<path d="M14.5,24c-0.3,0-0.5-0.2-0.5-0.5V23c0-0.6-0.4-1-1-1h-2c-0.6,0-1,0.4-1,1v0.5c0,0.3-0.2,0.5-0.5,0.5S9,23.8,9,23.5V23
	c0-1.1,0.9-2,2-2h2c1.1,0,2,0.9,2,2v0.5C15,23.8,14.8,24,14.5,24z"/>
<path d="M21,20c-0.8,0-1.5-0.7-1.5-1.5S20.2,17,21,17s1.5,0.7,1.5,1.5S21.8,20,21,20z M21,18c-0.3,0-0.5,0.2-0.5,0.5S20.7,19,21,19
	s0.5-0.2,0.5-0.5S21.3,18,21,18z"/>
<path d="M23.5,24c-0.3,0-0.5-0.2-0.5-0.5V23c0-0.6-0.4-1-1-1h-2c-0.6,0-1,0.4-1,1v0.5c0,0.3-0.2,0.5-0.5,0.5S18,23.8,18,23.5V23
	c0-1.1,0.9-2,2-2h2c1.1,0,2,0.9,2,2v0.5C24,23.8,23.8,24,23.5,24z"/>
<path d="M21.5,15h-19C1.1,15,0,13.9,0,12.5v-10C0,1.1,1.1,0,2.5,0h19C22.9,0,24,1.1,24,2.5v10C24,13.9,22.9,15,21.5,15z M2.5,1
	C1.7,1,1,1.7,1,2.5v10C1,13.3,1.7,14,2.5,14h19c0.8,0,1.5-0.7,1.5-1.5v-10C23,1.7,22.3,1,21.5,1H2.5z"/>
<path d="M9.5,5h-6C3.2,5,3,4.8,3,4.5S3.2,4,3.5,4h6C9.8,4,10,4.2,10,4.5S9.8,5,9.5,5z"/>
<path d="M7.5,8h-4C3.2,8,3,7.8,3,7.5S3.2,7,3.5,7h4C7.8,7,8,7.2,8,7.5S7.8,8,7.5,8z"/>
<path d="M9.5,11h-6C3.2,11,3,10.8,3,10.5S3.2,10,3.5,10h6c0.3,0,0.5,0.2,0.5,0.5S9.8,11,9.5,11z"/>
<path d="M16,12.5c-2.8,0-5-2.2-5-5s2.2-5,5-5s5,2.2,5,5S18.8,12.5,16,12.5z M16,3.5c-2.2,0-4,1.8-4,4s1.8,4,4,4s4-1.8,4-4
	S18.2,3.5,16,3.5z"/>
<path d="M13,11c-0.1,0-0.3,0-0.4-0.1c-0.2-0.2-0.2-0.5,0-0.7l2.9-2.9V3c0-0.3,0.2-0.5,0.5-0.5c0.3,0,0.5,0.2,0.5,0.5v4.5
	c0,0.1-0.1,0.3-0.1,0.4l-3,3C13.3,11,13.1,11,13,11z"/>
</svg>
