<?xml version="1.0" encoding="utf-8"?>
<!-- Generator: Adobe Illustrator 22.0.1, SVG Export Plug-In . SVG Version: 6.00 Build 0)  -->
<svg version="1.1" id="qr_code" focusable="false" xmlns="http://www.w3.org/2000/svg" xmlns:xlink="http://www.w3.org/1999/xlink"
	 x="0px" y="0px" viewBox="0 0 21 24" style="enable-background:new 0 0 21 24;" xml:space="preserve" fill="#848484">
<path d="M-1.5,10.3H8.8V0H-1.5V10.3z M1.9,3.4h3.4v3.4H1.9V3.4z M12.2,0v10.3h10.3V0H12.2z M19.1,6.9h-3.4V3.4h3.4V6.9z M-1.5,24
	H8.8V13.7H-1.5V24z M1.9,17.1h3.4v3.4H1.9V17.1z M20.8,13.7h1.7v6.9h-5.1v-1.7h-1.7V24h-3.4V13.7h5.1v1.7h3.4V13.7z M20.8,22.3h1.7
	V24h-1.7V22.3z M17.4,22.3h1.7V24h-1.7V22.3z"/>
</svg>
