<?xml version="1.0" encoding="utf-8"?>
<!-- Generator: Adobe Illustrator 22.0.1, SVG Export Plug-In . SVG Version: 6.00 Build 0)  -->
<svg version="1.1" id="Capa_1" xmlns="http://www.w3.org/2000/svg" xmlns:xlink="http://www.w3.org/1999/xlink" x="0px" y="0px"
	 viewBox="0 0 24 24" style="enable-background:new 0 0 24 24;" xml:space="preserve">
<style type="text/css">
	.st0{display:none;}
</style>
<path d="M9.7,13.1c0-0.2-0.2-0.4-0.4-0.4H1.5c-0.4,0-0.8-0.3-0.8-0.8V1.5c0-0.4,0.3-0.8,0.8-0.8H12c0.4,0,0.8,0.3,0.8,0.8v7.9
	c0,0.2,0.2,0.4,0.4,0.4c0.2,0,0.4-0.2,0.4-0.4V1.5C13.5,0.7,12.8,0,12,0H1.5C0.7,0,0,0.7,0,1.5V12c0,0.8,0.7,1.5,1.5,1.5h7.9
	C9.6,13.5,9.7,13.3,9.7,13.1z"/>
<path class="st0" d="M236.5-19.5h-64.1c-4.1,0-7.5,3.4-7.5,7.5c0,4.1,3.4,7.5,7.5,7.5h64.1c9.1,0,16.5,7.4,16.5,16.5v224.5
	c0,9.1-7.4,16.5-16.5,16.5H12c-9.1,0-16.5-7.4-16.5-16.5V12C-4.5,2.9,2.9-4.5,12-4.5h128.3c4.1,0,7.5-3.4,7.5-7.5
	c0-4.1-3.4-7.5-7.5-7.5H12C-5.4-19.5-19.5-5.4-19.5,12v224.5c0,17.4,14.2,31.5,31.5,31.5h224.5c17.4,0,31.5-14.2,31.5-31.5V12
	C268-5.4,253.8-19.5,236.5-19.5z"/>
<path class="st0" d="M13.5-244H-214c-16.6,0-30,13.4-30,30V13.5c0,16.6,13.4,30,30,30h182.5V-0.5c2.4-16.5,14.9-27,31-31h44.1V-214
	C43.5-230.6,30.1-244,13.5-244z M-28.1-148.8h-18.2c-2.2,8.1-7.3,23.7-17.3,42.1c-6.2,11.4-14.8,25-26.6,38.9
	C-78.7-56-64.9-44.5-48.3-34.5c3.6,2.1,4.7,6.7,2.6,10.3c-1.4,2.3-3.9,3.6-6.4,3.6c-1.3,0-2.6-0.3-3.9-1.1
	c-17.6-10.5-32.2-22.6-44.3-35c-12,12.3-26.6,24.4-44.2,35c-1.2,0.7-2.5,1.1-3.9,1.1c-2.5,0-5-1.3-6.4-3.6c-2.1-3.6-1-8.2,2.6-10.3
	c16.6-10,30.4-21.4,41.8-33.2c-16-18.8-26.7-37.8-33.7-53.5c-1.7-3.8,0-8.2,3.8-9.9c3.8-1.7,8.2,0,9.9,3.8
	c6.4,14.2,15.9,31.3,30.1,48.3c23.2-27.9,34-55.9,38.3-69.8h-110.4c-4.1,0-7.5-3.4-7.5-7.5c0-4.1,3.4-7.5,7.5-7.5h64.6v-8.5
	c0-4.1,3.4-7.5,7.5-7.5c4.1,0,7.5,3.4,7.5,7.5v8.5h64.6c4.1,0,7.5,3.4,7.5,7.5C-20.6-152.2-23.9-148.8-28.1-148.8z"/>
<path d="M10.1,3.8h-3V3.4C7.1,3.2,6.9,3,6.7,3C6.5,3,6.4,3.2,6.4,3.4v0.4h-3C3.2,3.8,3,3.9,3,4.1c0,0.2,0.2,0.4,0.4,0.4h5.2
	c-0.2,0.7-0.7,2-1.8,3.3C6.1,6.9,5.6,6.1,5.3,5.5C5.2,5.3,5,5.2,4.9,5.3C4.7,5.4,4.6,5.6,4.7,5.8C5,6.5,5.5,7.4,6.3,8.3
	c-0.5,0.6-1.2,1.1-2,1.6c-0.2,0.1-0.2,0.3-0.1,0.5c0.1,0.1,0.2,0.2,0.3,0.2c0.1,0,0.1,0,0.2-0.1c0.8-0.5,1.5-1.1,2.1-1.6
	C7.3,9.4,8,9.9,8.8,10.4c0.1,0,0.1,0.1,0.2,0.1c0.1,0,0.2-0.1,0.3-0.2c0.1-0.2,0-0.4-0.1-0.5c-0.8-0.5-1.4-1-2-1.6
	c0.6-0.7,1-1.3,1.2-1.8c0.5-0.9,0.7-1.6,0.8-2h0.9c0.2,0,0.4-0.2,0.4-0.4C10.5,3.9,10.3,3.8,10.1,3.8z"/>
<path class="st0" d="M134.4,51.3c-1.7-4.1-5.6-6.7-10-6.7c0,0,0,0,0,0c-4.4,0-8.3,2.6-10,6.7c0,0.1,0,0.1-0.1,0.2L60.3,193.7
	c-1.5,3.9,0.5,8.2,4.3,9.7c0.9,0.3,1.8,0.5,2.7,0.5c3,0,5.9-1.8,7-4.8l11.7-30.6h76.7l11.5,30.6c1.5,3.9,5.8,5.8,9.7,4.4
	c3.9-1.5,5.8-5.8,4.4-9.7L134.5,51.5C134.5,51.4,134.5,51.3,134.4,51.3L134.4,51.3z M91.6,153.4l32.8-86.2l32.5,86.2H91.6z"/>
<path d="M9.6,19.2l-1.5-1.1C7.9,18,7.7,18,7.6,18.2c-0.1,0.2-0.1,0.4,0.1,0.5l0.7,0.5H7.1c-1.3,0-2.3-1-2.3-2.3v-2.3
	c0-0.2-0.2-0.4-0.4-0.4s-0.4,0.2-0.4,0.4v2.3c0,1.6,1.3,3,3,3h1.2l-0.7,0.5c-0.2,0.1-0.2,0.3-0.1,0.5C7.7,20.9,7.8,21,7.9,21
	c0.1,0,0.1,0,0.2-0.1l1.5-1.1c0.1-0.1,0.1-0.2,0.1-0.3S9.7,19.3,9.6,19.2z"/>
<path d="M14.4,4.8l1.5,1.1C16,5.9,16.1,6,16.1,6c0.1,0,0.2,0,0.3-0.1c0.1-0.2,0.1-0.4-0.1-0.5l-0.7-0.5h1.2c1.3,0,2.3,1,2.3,2.3v2.3
	c0,0.2,0.2,0.4,0.4,0.4c0.2,0,0.4-0.2,0.4-0.4V7.1c0-1.6-1.3-3-3-3h-1.2l0.7-0.5c0.2-0.1,0.2-0.3,0.1-0.5C16.3,3,16.1,3,15.9,3.1
	l-1.5,1.1c-0.1,0.1-0.1,0.2-0.1,0.3C14.3,4.6,14.3,4.7,14.4,4.8L14.4,4.8z"/>
<g>
	<polygon points="15.7,18.6 18.8,18.6 17.3,14.6 	"/>
	<path d="M22.6,10.5H11.9c-0.8,0-1.4,0.6-1.4,1.4v10.7c0,0.8,0.6,1.4,1.4,1.4h10.7c0.8,0,1.4-0.6,1.4-1.4V11.9
		C24,11.2,23.4,10.5,22.6,10.5z M20.1,21c-0.2,0.1-0.4,0-0.5-0.2l-0.5-1.4h-3.6l-0.5,1.4c-0.1,0.1-0.2,0.2-0.3,0.2c0,0-0.1,0-0.1,0
		c-0.2-0.1-0.3-0.3-0.2-0.5l2.5-6.7c0,0,0,0,0,0c0.1-0.2,0.3-0.3,0.5-0.3c0,0,0,0,0,0c0.2,0,0.4,0.1,0.5,0.3c0,0,0,0,0,0l2.5,6.7
		C20.3,20.7,20.2,20.9,20.1,21z"/>
</g>
</svg>
