<?xml version="1.0" encoding="utf-8"?>
<!-- Generator: Adobe Illustrator 22.0.1, SVG Export Plug-In . SVG Version: 6.00 Build 0)  -->
<svg version="1.1" id="Capa_1" xmlns="http://www.w3.org/2000/svg" xmlns:xlink="http://www.w3.org/1999/xlink" x="0px" y="0px"
	 viewBox="0 0 24 24" style="enable-background:new 0 0 24 24;" xml:space="preserve" fill="#FFFFFF">
<style type="text/css">
	.st0{display:none;}
</style>
<path class="st0" d="M-36.6,36c0-4.1-3.4-7.5-7.5-7.5h-168.3c-9.1,0-16.5-7.4-16.5-16.5v-224.5c0-9.1,7.4-16.5,16.5-16.5H12
	c9.1,0,16.5,7.4,16.5,16.5v168.3c0,4.1,3.4,7.5,7.5,7.5c4.1,0,7.5-3.4,7.5-7.5v-168.3c0-17.4-14.2-31.5-31.5-31.5h-224.5
	c-17.4,0-31.5,14.2-31.5,31.5V12c0,17.4,14.1,31.5,31.5,31.5h168.3C-40,43.5-36.6,40.2-36.6,36z"/>
<path d="M22.5,10.5h-3c-0.2,0-0.4,0.2-0.4,0.4c0,0.2,0.2,0.4,0.4,0.4h3c0.4,0,0.8,0.3,0.8,0.8v10.5c0,0.4-0.3,0.8-0.8,0.8H12
	c-0.4,0-0.8-0.3-0.8-0.8V12c0-0.4,0.3-0.8,0.8-0.8h6c0.2,0,0.4-0.2,0.4-0.4c0-0.2-0.2-0.4-0.4-0.4h-6c-0.8,0-1.5,0.7-1.5,1.5v10.5
	c0,0.8,0.7,1.5,1.5,1.5h10.5c0.8,0,1.5-0.7,1.5-1.5V12C24,11.2,23.3,10.5,22.5,10.5z"/>
<path d="M12.1,0H1.4C0.6,0,0,0.6,0,1.4v10.7c0,0.8,0.6,1.4,1.4,1.4h8.4v-2.1c0.1-0.8,0.9-1.5,1.6-1.6h2.1V1.4
	C13.5,0.6,12.8,0,12.1,0z M10.1,4.5H9.3c-0.1,0.4-0.3,1.1-0.8,2C8.2,7,7.8,7.6,7.2,8.3c0.5,0.6,1.2,1.1,2,1.6
	c0.2,0.1,0.2,0.3,0.1,0.5c-0.1,0.1-0.2,0.2-0.3,0.2c-0.1,0-0.1,0-0.2-0.1C8,9.9,7.3,9.4,6.7,8.8c-0.6,0.6-1.2,1.1-2.1,1.6
	c-0.1,0-0.1,0.1-0.2,0.1c-0.1,0-0.2-0.1-0.3-0.2c-0.1-0.2,0-0.4,0.1-0.5c0.8-0.5,1.4-1,2-1.6C5.5,7.4,5,6.5,4.7,5.8
	c-0.1-0.2,0-0.4,0.2-0.5c0.2-0.1,0.4,0,0.5,0.2c0.3,0.7,0.7,1.5,1.4,2.3c1.1-1.3,1.6-2.6,1.8-3.3H3.4C3.2,4.5,3,4.3,3,4.1
	c0-0.2,0.2-0.4,0.4-0.4h3V3.4C6.4,3.2,6.5,3,6.7,3c0.2,0,0.4,0.2,0.4,0.4v0.4h3c0.2,0,0.4,0.2,0.4,0.4C10.5,4.3,10.3,4.5,10.1,4.5z"
	/>
<path class="st0" d="M-28.1-163.8h-64.6v-8.5c0-4.1-3.4-7.5-7.5-7.5c-4.1,0-7.5,3.4-7.5,7.5v8.5h-64.6c-4.1,0-7.5,3.4-7.5,7.5
	c0,4.1,3.4,7.5,7.5,7.5h110.4c-4.3,13.9-15.1,41.9-38.3,69.8c-14.2-17-23.8-34.2-30.1-48.3c-1.7-3.8-6.1-5.5-9.9-3.8
	c-3.8,1.7-5.5,6.1-3.8,9.9c7,15.6,17.7,34.7,33.7,53.5c-11.4,11.8-25.2,23.3-41.8,33.2c-3.6,2.1-4.7,6.7-2.6,10.3
	c1.4,2.3,3.9,3.6,6.4,3.6c1.3,0,2.6-0.3,3.9-1.1c17.6-10.6,32.2-22.7,44.2-35c12.1,12.4,26.7,24.5,44.3,35c1.2,0.7,2.5,1.1,3.9,1.1
	c2.6,0,5-1.3,6.4-3.6c2.1-3.6,1-8.2-2.6-10.3c-16.7-10-30.5-21.4-41.9-33.3c11.8-13.9,20.4-27.5,26.6-38.9c10-18.5,15-34,17.3-42.1
	h18.2c4.1,0,7.5-3.4,7.5-7.5C-20.6-160.5-23.9-163.8-28.1-163.8z"/>
<path d="M17.7,13.8c-0.1-0.2-0.3-0.3-0.5-0.3c0,0,0,0,0,0c-0.2,0-0.4,0.1-0.5,0.3c0,0,0,0,0,0l-2.5,6.7c-0.1,0.2,0,0.4,0.2,0.5
	c0,0,0.1,0,0.1,0c0.1,0,0.3-0.1,0.3-0.2l0.5-1.4h3.6l0.5,1.4c0.1,0.2,0.3,0.3,0.5,0.2c0.2-0.1,0.3-0.3,0.2-0.5L17.7,13.8
	C17.7,13.8,17.7,13.8,17.7,13.8L17.7,13.8z M15.7,18.6l1.5-4l1.5,4H15.7z"/>
<path d="M9.6,19.2l-1.5-1.1C7.9,18,7.7,18,7.6,18.2c-0.1,0.2-0.1,0.4,0.1,0.5l0.7,0.5H7.1c-1.3,0-2.3-1-2.3-2.3v-2.3
	c0-0.2-0.2-0.4-0.4-0.4s-0.4,0.2-0.4,0.4v2.3c0,1.6,1.3,3,3,3h1.2l-0.7,0.5c-0.2,0.1-0.2,0.3-0.1,0.5C7.7,20.9,7.8,21,7.9,21
	c0.1,0,0.1,0,0.2-0.1l1.5-1.1c0.1-0.1,0.1-0.2,0.1-0.3S9.7,19.3,9.6,19.2z"/>
<path d="M14.4,4.8l1.5,1.1C16,5.9,16.1,6,16.1,6c0.1,0,0.2,0,0.3-0.1c0.1-0.2,0.1-0.4-0.1-0.5l-0.7-0.5h1.2c1.3,0,2.3,1,2.3,2.3v2.3
	c0,0.2,0.2,0.4,0.4,0.4c0.2,0,0.4-0.2,0.4-0.4V7.1c0-1.6-1.3-3-3-3h-1.2l0.7-0.5c0.2-0.1,0.2-0.3,0.1-0.5C16.3,3,16.1,3,15.9,3.1
	l-1.5,1.1c-0.1,0.1-0.1,0.2-0.1,0.3C14.3,4.6,14.3,4.7,14.4,4.8L14.4,4.8z"/>
</svg>
